<svg xmlns="http://www.w3.org/2000/svg" viewBox="0 0 1024 1024" role="img" aria-labelledby="title desc">
  <title id="title">RI POTA coastal signal logo, one color</title>
  <desc id="desc">A one-color vector badge for Rhode Island POTA with a lighthouse, radio signal arcs, water bands, Rhode Island outline, and RI POTA text.</desc>
  <defs>
    <clipPath id="badge-clip">
      <circle cx="512" cy="512" r="456"/>
    </clipPath>
  </defs>

  <circle cx="512" cy="512" r="454" fill="#f7f4ed"/>
  <g clip-path="url(#badge-clip)">
    <path fill="#18312f" d="M37 803c93-32 176-42 247-30 55 9 103 29 144 58 47 32 104 47 171 45 66-3 140-22 221-56 52-22 108-28 169-19v199H37z"/>
    <path fill="none" stroke="#f7f4ed" stroke-linecap="round" stroke-linejoin="round" stroke-width="24" d="M54 801c83-28 158-39 226-32 61 7 116 27 165 60 46 31 101 45 165 42 63-3 135-22 214-55 50-21 105-28 165-20"/>
    <path fill="none" stroke="#f7f4ed" stroke-linecap="round" stroke-linejoin="round" stroke-width="21" d="M33 868c70-24 136-34 198-29 69 5 128 25 177 58 44 30 96 44 155 42 59-2 127-19 202-50 68-28 143-36 224-23"/>

    <path fill="#18312f" d="M112 750l84-60 80-22 62 45 61 142H70z"/>
    <path fill="none" stroke="#f7f4ed" stroke-linecap="round" stroke-linejoin="round" stroke-width="16" d="M128 765l72-22 56 47 37 70"/>

    <path fill="#18312f" d="M259 388h150l50 365-44 48H253l-43-48z"/>
    <path fill="#f7f4ed" d="M273 396h122l15 76H258z"/>
    <path fill="#18312f" d="M236 388l99-86 99 86z"/>
    <circle cx="335" cy="293" r="17" fill="#18312f"/>
    <path fill="none" stroke="#18312f" stroke-linecap="round" stroke-linejoin="round" stroke-width="8" d="M335 276v-40"/>
    <rect x="265" y="429" width="140" height="72" rx="5" fill="#f7f4ed"/>
    <rect x="289" y="429" width="16" height="72" fill="#18312f"/>
    <rect x="327" y="429" width="16" height="72" fill="#18312f"/>
    <rect x="366" y="429" width="16" height="72" fill="#18312f"/>
    <rect x="300" y="559" width="42" height="92" rx="10" fill="#f7f4ed"/>

    <path fill="none" stroke="#18312f" stroke-linecap="round" stroke-linejoin="round" stroke-width="28" d="M142 247a204 204 0 0 0 0 288"/>
    <path fill="none" stroke="#18312f" stroke-linecap="round" stroke-linejoin="round" stroke-width="24" d="M197 305a125 125 0 0 0 0 172"/>
    <path fill="none" stroke="#18312f" stroke-linecap="round" stroke-linejoin="round" stroke-width="24" d="M458 306a125 125 0 0 1 0 172"/>
    <path fill="none" stroke="#18312f" stroke-linecap="round" stroke-linejoin="round" stroke-width="28" d="M512 249a203 203 0 0 1 0 286"/>

    <path fill="none" stroke="#18312f" stroke-linecap="round" stroke-linejoin="round" stroke-width="15" d="M574 180h240v82h55v80l54 64-30 54 52 39v118l-44 30-34-18-30 58-70 40-45-22 24-78-44-21-56 22-38-29 32-59-33-55 33-58-44-55 14-72-52-42z"/>
    <path fill="none" stroke="#18312f" stroke-linecap="round" stroke-linejoin="round" stroke-width="11" d="M846 591l36 26m-95 59 37 25m-90-89 30 25m-91-18 30 22"/>
    <rect x="590" y="432" width="288" height="252" rx="10" fill="#f7f4ed"/>
    <path fill="#18312f" d="M700.09 463.23Q700.09 458.41 698.11 454.98Q696.13 451.54 691.32 449.56Q687.97 448.19 683.50 447.89Q679.03 447.59 673.10 447.59L661.16 447.59L661.16 482.05L671.30 482.05Q679.20 482.05 684.53 481.27Q689.86 480.50 693.47 477.75Q696.91 475.09 698.50 471.86Q700.09 468.64 700.09 463.23M708.85 497.17L751.56 552L711.26 552L676.37 505.08L661.16 505.08L661.16 552L628.33 552L628.33 424.04L683.67 424.04Q695.02 424.04 703.18 425.33Q711.34 426.62 718.48 430.91Q725.70 435.21 729.95 442.04Q734.20 448.88 734.20 459.19Q734.20 473.37 727.63 482.30Q721.05 491.24 708.85 497.17M835.18 529.31L835.18 552L760.24 552L760.24 529.31L781.21 529.31L781.21 446.73L760.24 446.73L760.24 424.04L835.18 424.04L835.18 446.73L814.21 446.73L814.21 529.31"/>
    <path fill="#18312f" d="M657.05 609.72Q657.05 614.17 655.50 618.41Q653.94 622.65 651.05 625.54Q647.10 629.45 642.23 631.45Q637.37 633.45 630.12 633.45L619.50 633.45L619.50 655L602.44 655L602.44 588.84L630.52 588.84Q636.83 588.84 641.17 589.93Q645.50 591.02 648.83 593.19Q652.83 595.81 654.94 599.90Q657.05 603.99 657.05 609.72M639.41 610.12Q639.41 607.32 637.90 605.30Q636.39 603.28 634.39 602.48Q631.72 601.41 629.19 601.30Q626.66 601.19 622.44 601.19L619.50 601.19L619.50 621.01L624.39 621.01Q628.75 621.01 631.57 620.48Q634.39 619.94 636.30 618.34Q637.94 616.92 638.68 614.94Q639.41 612.97 639.41 610.12M733.48 621.94Q733.48 637.76 724.41 647.07Q715.35 656.38 699.35 656.38Q683.40 656.38 674.34 647.07Q665.27 637.76 665.27 621.94Q665.27 605.99 674.34 596.73Q683.40 587.46 699.35 587.46Q715.26 587.46 724.37 596.73Q733.48 605.99 733.48 621.94M710.86 638.69Q713.35 635.67 714.55 631.56Q715.75 627.45 715.75 621.90Q715.75 615.94 714.37 611.77Q712.99 607.59 710.77 605.01Q708.51 602.35 705.55 601.15Q702.60 599.95 699.40 599.95Q696.15 599.95 693.29 601.10Q690.42 602.26 688.02 604.92Q685.80 607.41 684.40 611.79Q683 616.17 683 621.94Q683 627.85 684.36 632.01Q685.71 636.16 687.93 638.78Q690.15 641.40 693.13 642.65Q696.11 643.89 699.40 643.89Q702.68 643.89 705.66 642.63Q708.64 641.36 710.86 638.69M798.26 588.84L798.26 601.64L777.60 601.64L777.60 655L760.54 655L760.54 601.64L739.88 601.64L739.88 588.84L798.26 588.84M845.23 588.84L869.67 655L852.03 655L847.45 641.63L822.92 641.63L818.35 655L801.15 655L825.59 588.84L845.23 588.84M827.05 629.50L843.32 629.50L835.19 605.77"/>
  </g>
  <circle cx="512" cy="512" r="454" fill="none" stroke="#18312f" stroke-linecap="round" stroke-linejoin="round" stroke-width="34"/>
</svg>
