<svg xmlns="http://www.w3.org/2000/svg" viewBox="0 0 1024 1024" role="img" aria-labelledby="title desc">
  <title id="title">RI POTA coastal signal logo, one color</title>
  <desc id="desc">A one-color circular Rhode Island POTA badge with a lighthouse, radio signal arcs, water bands, and a simplified Rhode Island outline.</desc>
  <defs>
    <style>
      .ink { fill: #18312f; }
      .stroke {
        fill: none;
        stroke: #18312f;
        stroke-linecap: round;
        stroke-linejoin: round;
      }
      .label {
        font-family: Inter, ui-sans-serif, system-ui, -apple-system, BlinkMacSystemFont, "Segoe UI", sans-serif;
        font-weight: 900;
      }
    </style>
  </defs>

  <circle cx="512" cy="512" r="470" class="stroke" stroke-width="40"/>
  <path class="ink" d="M94 829c50-44 95-74 137-91 35-14 68-18 101-12 33 7 66 24 101 49 52 36 109 55 172 56 62 1 131-14 207-45 39-16 80-25 123-27 24-2 48 0 72 3v58c-48-4-93 3-133 20-86 36-164 55-232 58-74 3-140-15-197-53-54-37-115-55-181-54-57 0-122 14-194 41z"/>
  <path class="stroke" d="M48 905c71-25 136-37 195-36 70 1 134 20 192 56 48 31 102 46 161 45 58 0 124-15 198-44 64-25 135-34 214-27" stroke-width="26"/>
  <path class="ink" d="M199 747l51-43 69-16 43 40 36 96H118z"/>
  <path class="ink" d="M265 380h156l52 365-42 42H255l-42-42z"/>
  <path fill="#f7f4ed" d="M276 387h134l15 76H262z"/>
  <path class="ink" d="M245 385l98-82 98 82z"/>
  <rect x="268" y="424" width="150" height="78" rx="5" fill="#f7f4ed"/>
  <rect x="291" y="424" width="18" height="78" class="ink"/>
  <rect x="334" y="424" width="18" height="78" class="ink"/>
  <rect x="377" y="424" width="18" height="78" class="ink"/>
  <rect x="298" y="552" width="46" height="98" rx="12" fill="#f7f4ed"/>
  <circle cx="343" cy="294" r="18" class="ink"/>
  <path class="stroke" d="M343 276v-42" stroke-width="8"/>
  <path class="stroke" d="M142 234a214 214 0 0 0 0 306" stroke-width="30"/>
  <path class="stroke" d="M197 286a140 140 0 0 0 0 202" stroke-width="27"/>
  <path class="stroke" d="M503 298a133 133 0 0 1 0 178" stroke-width="27"/>
  <path class="stroke" d="M558 245a210 210 0 0 1 0 284" stroke-width="30"/>
  <path class="stroke" stroke-width="18" d="M486 142h286v98h56l67 83-32 65 61 35v195l-47 28-35-18-30 64-63 34-42-22 24-87-48-18-56 18-35-28 35-64-31-54 32-60-45-58 12-82-62-48v-97h-47z"/>
  <text x="517" y="560" class="label ink" font-size="186">RI</text>
  <text x="470" y="674" class="label ink" font-size="112">POTA</text>
</svg>
